<?xml version="1.0" encoding="UTF-8" standalone="no"?>

<svg
        width="116"
        height="115"
        viewBox="0 0 116 115"
        xmlns="http://www.w3.org/2000/svg">
    <g style="fill:none;stroke:#000000;stroke-width:0.899583;stroke-linecap:round;stroke-dasharray:none;stroke-opacity:1">
        <rect
                width="23.706627"
                height="23.815084"
                x="3.3633366"
                y="3.2548842"
                ry="2.624547"
                rx="2.4942772"/>
        <circle
                id="path1010"
                cx="6.0890298"
                cy="6.0167327"
                r="1.0121714"/>
        <circle
                id="path1010-5"
                cx="24.344263"
                cy="6.0528808"
                r="1.0121714"/>
        <circle
                id="path1010-0"
                cx="6.0528817"
                cy="24.308115"
                r="1.0121714"/>
        <circle
                id="path1010-1"
                cx="24.344263"
                cy="24.308115"
                r="1.0121714"/>
        <path
                d="m 24.416561,15.053977 -0.0723,-6.0368787 C 22.712284,8.3840405 22.164399,7.2595835 21.488493,6.0528825 c -3.897441,-0.127973 -8.141021,0.12117 -12.3268036,2e-6 -0.657412,1.408398 -1.620468,2.422402 -2.855768,2.675023 l 1e-6,12.7967395 c 1.403733,0.604054 2.005362,1.325087 2.638875,2.891916 l 12.2545016,-0.03615 c 0.745765,-1.103505 0.797505,-2.361238 3.144962,-3.108812 z"
                id="path1180"/>
        <path
                d="m 7.1734984,0.55823749 0.03615,2.60272601"
                id="path1351"/>
        <path
                d="m 11.240261,0.44979149 0.03615,2.60272601"
                id="path1351-0"/>
        <path
                d="m 15.180499,0.48594049 0.03615,2.60272601"
                id="path1351-08"/>
        <path
                d="m 19.265334,0.48594049 0.03615,2.60272601"
                id="path1351-3"/>
        <path
                d="m 23.205572,0.48594049 0.03615,2.60272601"
                id="path1351-5"/>
        <path
                style="fill:none;stroke:#000000;stroke-width:0.899583;stroke-linecap:round;stroke-dasharray:none;stroke-opacity:1"
                d="m 7.1554254,27.163885 0.03615,2.602726"
                id="path1351-4"/>
        <path
                style="fill:none;stroke:#000000;stroke-width:0.899583;stroke-linecap:round;stroke-dasharray:none;stroke-opacity:1"
                d="m 11.348708,27.272333 0.03615,2.602726"
                id="path1351-1"/>
        <path
                d="m 15.325095,27.272333 0.03615,2.602726"
                id="path1351-18"/>
        <path
                d="m 19.301482,27.314867 0.03615,2.602726"
                id="path1351-6"/>
        <path
                d="m 23.277869,27.27233 0.03615,2.602726"
                id="path1351-2"/>
        <path
                style="fill:none;stroke:#000000;stroke-width:0.899583;stroke-linecap:round;stroke-dasharray:none;stroke-opacity:1"
                d="M 0.52208849,7.1554275 3.1248145,7.1192775"
                id="path1351-42"/>
        <path
                style="fill:none;stroke:#000000;stroke-width:0.899583;stroke-linecap:round;stroke-dasharray:none;stroke-opacity:1"
                d="M 0.48594049,11.240262 3.0886665,11.204112"
                id="path1351-42-4"/>
        <path
                d="M 0.55823849,15.144351 3.1609645,15.108201"
                id="path1351-42-1"/>
        <path
                d="M 0.44979149,19.174962 3.0525175,19.138812"
                id="path1351-42-9"/>
        <path
                style="fill:none;stroke:#000000;stroke-width:0.899583;stroke-linecap:round;stroke-dasharray:none;stroke-opacity:1"
                d="M 0.55823849,23.205573 3.1609645,23.169423"
                id="path1351-42-7"/>
        <path
                d="m 27.453078,7.1915765 2.602726,-0.03615"
                id="path1351-42-11"/>
        <path
                d="m 27.561525,11.31256 2.602726,-0.03615"
                id="path1351-42-8"/>
        <path
                d="m 27.482484,15.307022 2.602726,-0.03615"
                id="path1351-42-6"/>
        <path
                d="M 27.597674,19.301484 30.2004,19.265334"
                id="path1351-42-2"/>
        <path
                d="m 27.525373,23.295946 2.602726,-0.03615"
                id="path1351-42-3"/>
    </g>
</svg>
