<?xml version="1.0" encoding="UTF-8" standalone="no"?>
<!DOCTYPE svg PUBLIC "-//W3C//DTD SVG 1.0//EN" "http://www.w3.org/TR/2001/REC-SVG-20010904/DTD/svg10.dtd">
<svg xmlns="http://www.w3.org/2000/svg" xmlns:xlink="http://www.w3.org/1999/xlink" width="100%" height="146" version="1.1">
	<title>digicraft punchcard logo</title>
    <defs>
		<linearGradient id="punchcard-gradient" x1="100%" y1="50%" x2="0%" y2="50%">
			<stop offset="0%" style="stop-color:rgb(128,128,128);stop-opacity:0" />
			<stop offset="100%" style="stop-color:rgb(69,69,69);stop-opacity:1" />
		</linearGradient>
        <pattern id="punchcard-pattern-v" x="0" y="0" width="21" height="21" patternUnits="userSpaceOnUse">
        	<rect x="0" y="0" width="20" height="20" fill="skyblue" />
        </pattern>
        <pattern id="punchcard-pattern-h" x="0" y="0" width="21" height="145" patternUnits="userSpaceOnUse">
        	<rect x="0" y="0" width="21" height="20" fill="skyblue" />
        	<rect x="0" y="20" width="20" height="84" fill="url(#punchcard-pattern-v)" />
        	<rect x="0" y="105" width="20" height="20" fill="skyblue" />
        	<rect x="0" y="126" width="21" height="20" fill="skyblue" />
        </pattern>
        <mask id="punchcard-mask" width="10" height="100%">
        	<rect width="100%" height="146" fill="url(#punchcard-pattern-h)" />
        </mask>
    </defs>
    <g id="logo">
	    <!-- <rect x="0" y="0" width="20" height="146" fill="rgba(128,128,128, 1)" /> -->
	    <rect x="0" y="0" width="100%" height="159" fill="url(#punchcard-gradient)" mask="url(#punchcard-mask)" />
	    <g id="digi">
	    	<!--D-->
	    	<circle cx="31" cy="31" r="8" fill="white"/>
	    	<circle cx="31" cy="52" r="8" fill="white"/>
	    	<circle cx="31" cy="73" r="8" fill="#ffd6d6"/>
	    	<circle cx="31" cy="94" r="8" fill="white"/>
	    	<circle cx="31" cy="115" r="8" fill="white"/>
			<circle cx="52" cy="115" r="8" fill="white"/>
			<circle cx="52" cy="31" r="8" fill="white"/>
	    	<circle cx="73" cy="31" r="8" fill="white"/>
			<circle cx="73" cy="115" r="8" fill="white"/>
			<circle cx="94" cy="52" r="8" fill="white"/>
	    	<circle cx="94" cy="73" r="8" fill="#ffd6d6"/>
	    	<circle cx="94" cy="94" r="8" fill="white"/>
	    	<!--I-->
	    	<circle cx="137" cy="31" r="8" fill="white"/>
	    	<circle cx="137" cy="52" r="8" fill="white"/>
	    	<circle cx="137" cy="73" r="8" fill="#ffd6d6"/>
	    	<circle cx="137" cy="94" r="8" fill="white"/>
	    	<circle cx="137" cy="115" r="8" fill="white"/>
	    	<!--G-->
	    	<circle cx="179" cy="52" r="8" fill="white"/>
	    	<circle cx="179" cy="73" r="8" fill="#ffd6d6"/>
	    	<circle cx="179" cy="94" r="8" fill="white"/>
	    	<circle cx="200" cy="31" r="8" fill="white"/>
	    	<circle cx="200" cy="115" r="8" fill="white"/>
	    	<circle cx="221" cy="31" r="8" fill="white"/>
	    	<circle cx="221" cy="73" r="8" fill="#ffd6d6"/>
	    	<circle cx="221" cy="115" r="8" fill="white"/>
	    	<circle cx="242" cy="73" r="8" fill="#ffd6d6"/>
	    	<circle cx="242" cy="94" r="8" fill="white"/>
	    	<!--I-->
	    	<circle cx="284" cy="31" r="8" fill="white"/>
	    	<circle cx="284" cy="52" r="8" fill="white"/>
	    	<circle cx="284" cy="73" r="8" fill="#ffd6d6"/>
	    	<circle cx="284" cy="94" r="8" fill="white"/>
	    	<circle cx="284" cy="115" r="8" fill="white"/>
	    	<!-- - -->
<!--	    	<circle cx="326" cy="73" r="8" fill="white"/>-->
<!--	    	<circle cx="347" cy="73" r="8" fill="white"/>-->
	    	<!--C-->
	    	<circle cx="389" cy="52" r="8" fill="white"/>
	    	<circle cx="389" cy="73" r="8" fill="#ffd6d6"/>
	    	<circle cx="389" cy="94" r="8" fill="white"/>
	    	<circle cx="410" cy="31" r="8" fill="white"/>
	    	<circle cx="410" cy="115" r="8" fill="white"/>
	    	<circle cx="431" cy="31" r="8" fill="white"/>
	    	<circle cx="431" cy="115" r="8" fill="white"/>
	    	<!--R-->
	    	<circle cx="473" cy="31" r="8" fill="white"/>
	    	<circle cx="473" cy="52" r="8" fill="white"/>
	    	<circle cx="473" cy="73" r="8" fill="#ffd6d6"/>
	    	<circle cx="473" cy="94" r="8" fill="white"/>
	    	<circle cx="473" cy="115" r="8" fill="white"/>
	    	<circle cx="494" cy="31" r="8" fill="white"/>
			<circle cx="494" cy="73" r="8" fill="#ffd6d6"/>
			<circle cx="515" cy="31" r="8" fill="white"/>
			<circle cx="515" cy="73" r="8" fill="#ffd6d6"/>
			<circle cx="536" cy="52" r="8" fill="white"/>
	    	<circle cx="536" cy="94" r="8" fill="white"/>
	    	<circle cx="536" cy="115" r="8" fill="white"/>
	    	<!--A-->
	    	<circle cx="578" cy="52" r="8" fill="white"/>
	    	<circle cx="578" cy="73" r="8" fill="#ffd6d6"/>
	    	<circle cx="578" cy="94" r="8" fill="white"/>
	    	<circle cx="578" cy="115" r="8" fill="white"/>
			<circle cx="599" cy="31" r="8" fill="white"/>
			<circle cx="599" cy="73" r="8" fill="#ffd6d6"/>
			<circle cx="619" cy="31" r="8" fill="white"/>
			<circle cx="619" cy="73" r="8" fill="#ffd6d6"/>
			<circle cx="640" cy="52" r="8" fill="white"/>
			<circle cx="640" cy="73" r="8" fill="#ffd6d6"/>
	    	<circle cx="640" cy="94" r="8" fill="white"/>
	    	<circle cx="640" cy="115" r="8" fill="white"/>
	    	<!-- F -->
	    	<circle cx="682" cy="31" r="8" fill="white"/>
	    	<circle cx="682" cy="52" r="8" fill="white"/>
	    	<circle cx="682" cy="73" r="8" fill="#ffd6d6"/>
	    	<circle cx="682" cy="94" r="8" fill="white"/>
	    	<circle cx="682" cy="115" r="8" fill="white"/>
			<circle cx="703" cy="31" r="8" fill="white"/>
			<circle cx="703" cy="73" r="8" fill="#ffd6d6"/>
			<circle cx="724" cy="31" r="8" fill="white"/>
	    	<!--I-->
			<circle cx="766" cy="31" r="8" fill="white"/>
			<circle cx="787" cy="31" r="8" fill="white"/>
			<circle cx="787" cy="52" r="8" fill="white"/>
			<circle cx="787" cy="73" r="8" fill="#ffd6d6"/>
			<circle cx="787" cy="94" r="8" fill="white"/>
			<circle cx="787" cy="115" r="8" fill="white"/>
	    	<circle cx="808" cy="31" r="8" fill="white"/>
	    </g>
    </g>
</svg>